<?xml version="1.0" encoding="iso-8859-1"?>
<!-- Generator: Adobe Illustrator 19.0.0, SVG Export Plug-In . SVG Version: 6.00 Build 0)  -->
<svg version="1.1" id="Layer_1" xmlns="http://www.w3.org/2000/svg" xmlns:xlink="http://www.w3.org/1999/xlink" x="0px" y="0px"
	 viewBox="0 0 512 512" style="enable-background:new 0 0 512 512;" xml:space="preserve">
<g>
	<g>
		<path d="M461.295,322.807c-6.75-3.9-14.43-5.956-22.204-5.956c-0.06,0-0.111,0-0.171,0L403.806,256l35.123-60.843
			c0.06,0,0.12,0,0.171,0c7.774,0,15.445-2.065,22.204-5.956c21.393-12.348,28.749-39.799,16.401-61.201
			c-7.979-13.815-22.852-22.4-38.818-22.4c-7.834,0-15.573,2.074-22.383,6.008c-6.912,3.994-12.459,9.711-16.29,16.401h-70.315
			l-35.157-60.894c3.874-6.656,6.059-14.319,6.059-22.298C300.8,20.096,280.704,0,256,0c-24.704,0-44.8,20.096-44.8,44.8
			c0,7.979,2.176,15.642,6.059,22.298L182.101,128h-70.315c-3.823-6.69-9.37-12.407-16.282-16.401
			c-6.81-3.925-14.541-6.007-22.383-6.007c-15.966,0-30.839,8.585-38.818,22.4c-12.348,21.393-4.992,48.845,16.401,61.201
			c6.75,3.9,14.43,5.956,22.204,5.956c0.06,0,0.119,0,0.171,0L108.194,256l-35.123,60.843c-0.06,0-0.111,0-0.171,0
			c-7.774,0-15.445,2.065-22.204,5.956C29.303,335.155,21.948,362.607,34.295,384c7.979,13.824,22.852,22.409,38.818,22.409
			c7.842,0,15.582-2.082,22.383-6.007c6.912-3.985,12.459-9.711,16.282-16.393h70.315l35.157,60.894
			c-3.874,6.656-6.059,14.319-6.059,22.298c0,24.704,20.096,44.8,44.8,44.8c24.704,0,44.8-20.096,44.8-44.8
			c0-7.979-2.176-15.642-6.059-22.298L329.899,384h70.315c3.823,6.69,9.37,12.407,16.282,16.401
			c6.801,3.925,14.549,6.007,22.383,6.007c15.966,0,30.831-8.585,38.818-22.4C490.044,362.615,482.688,335.155,461.295,322.807z
			 M455.535,371.2c-3.558,6.161-10.01,9.6-16.648,9.6c-3.26,0-6.562-0.828-9.583-2.577c-7.151-4.122-10.487-12.134-9.182-19.823
			H315.119l-52.506,90.931c7.313,2.714,12.578,9.609,12.578,17.86c0,10.607-8.593,19.2-19.2,19.2c-10.607,0-19.2-8.593-19.2-19.2
			c0-8.26,5.265-15.155,12.578-17.86L196.881,358.4H91.878c1.306,7.689-2.031,15.701-9.182,19.823
			c-3.021,1.749-6.323,2.577-9.583,2.577c-6.63,0-13.09-3.447-16.648-9.6c-5.299-9.182-2.159-20.924,7.031-26.232
			c2.978-1.724,6.212-2.526,9.404-2.526c4.463,0,8.858,1.587,12.356,4.489L137.754,256l-52.497-90.94
			c-3.507,2.901-7.893,4.489-12.365,4.489c-3.191,0-6.426-0.811-9.404-2.526c-9.182-5.299-12.331-17.041-7.031-26.223
			c3.558-6.161,10.01-9.609,16.648-9.6c3.26,0,6.554,0.828,9.583,2.577c7.151,4.13,10.487,12.143,9.182,19.831h105.003
			l52.506-90.931C242.065,59.955,236.8,53.06,236.8,44.8c0-10.607,8.593-19.2,19.2-19.2c10.607,0,19.2,8.593,19.2,19.2
			c0,8.26-5.265,15.155-12.578,17.86l52.497,90.94h105.003c-1.306-7.689,2.031-15.701,9.182-19.831
			c3.021-1.749,6.323-2.577,9.583-2.577c6.639,0,13.09,3.448,16.648,9.6c5.299,9.182,2.159,20.924-7.031,26.223
			c-2.978,1.724-6.212,2.526-9.404,2.526c-4.471,0-8.858-1.587-12.365-4.489L374.246,256l52.497,90.931
			c3.507-2.901,7.893-4.489,12.356-4.489c3.191,0,6.426,0.811,9.404,2.526C457.685,350.268,460.834,362.01,455.535,371.2z"/>
	</g>
</g>
<g>
</g>
<g>
</g>
<g>
</g>
<g>
</g>
<g>
</g>
<g>
</g>
<g>
</g>
<g>
</g>
<g>
</g>
<g>
</g>
<g>
</g>
<g>
</g>
<g>
</g>
<g>
</g>
<g>
</g>
</svg>
