<svg id="Группа_1" data-name="Группа 1" xmlns="http://www.w3.org/2000/svg" width="105" height="85" viewBox="0 0 105 85">
  <metadata><?xpacket begin="﻿" id="W5M0MpCehiHzreSzNTczkc9d"?>
<x:xmpmeta xmlns:x="adobe:ns:meta/" x:xmptk="Adobe XMP Core 5.6-c138 79.159824, 2016/09/14-01:09:01        ">
   <rdf:RDF xmlns:rdf="http://www.w3.org/1999/02/22-rdf-syntax-ns#">
      <rdf:Description rdf:about=""/>
   </rdf:RDF>
</x:xmpmeta>
                                                                                                    
                                                                                                    
                                                                                                    
                                                                                                    
                                                                                                    
                                                                                                    
                                                                                                    
                                                                                                    
                                                                                                    
                                                                                                    
                                                                                                    
                                                                                                    
                                                                                                    
                                                                                                    
                                                                                                    
                                                                                                    
                                                                                                    
                                                                                                    
                                                                                                    
                                                                                                    
                           
<?xpacket end="w"?></metadata>
<defs>
    <style>
      .cls-1 {
        fill: none;
        stroke: #424242;
        stroke-width: 5px;
      }

      .cls-2 {
        fill: #424242;
      }
    </style>
  </defs>
  <rect id="Прямоугольник_2" data-name="Прямоугольник 2" class="cls-1" width="105" height="85" rx="20" ry="20"/>
  <path id="Прямоугольник_1_копия" data-name="Прямоугольник 1 копия" class="cls-2" d="M60,46H90a5,5,0,0,1,5,5v5A20,20,0,0,1,75,76H60a5,5,0,0,1-5-5V51A5,5,0,0,1,60,46Z"/>
  <path id="Прямоугольник_1_копия_2" data-name="Прямоугольник 1 копия 2" class="cls-2" d="M14,46H44a5,5,0,0,1,5,5V71a5,5,0,0,1-5,5H29A20,20,0,0,1,9,56V51A5,5,0,0,1,14,46Z"/>
  <path id="Прямоугольник_1" data-name="Прямоугольник 1" class="cls-2" d="M29,10H44a5,5,0,0,1,5,5V71a5,5,0,0,1-5,5H29A20,20,0,0,1,9,56V30A20,20,0,0,1,29,10Z"/>
  <path id="Прямоугольник_1_копия_3" data-name="Прямоугольник 1 копия 3" class="cls-2" d="M60,10H75A20,20,0,0,1,95,30v5a5,5,0,0,1-5,5H60a5,5,0,0,1-5-5V15A5,5,0,0,1,60,10Z"/>
</svg>
